<svg t="1766782102943" class="icon" viewBox="0 0 1024 1024" version="1.1" xmlns="http://www.w3.org/2000/svg" p-id="7418" width="200" height="200"><path d="M938.666667 898.517333H85.333333c-47.061333 0-85.333333-38.272-85.333333-85.333333V218.666667c0-47.061333 38.272-85.333333 85.333333-85.333334h853.333334c47.061333 0 85.333333 38.272 85.333333 85.333334v594.517333c0 47.018667-38.272 85.333333-85.333333 85.333333z m0-85.333333v42.666667-42.666667zM85.333333 218.666667v594.517333h853.205334L938.666667 218.666667H85.333333z" fill="#757575" p-id="7419"></path><path d="M916.821333 158.464a42.794667 42.794667 0 0 1 0 60.330667l-373.333333 373.376a42.794667 42.794667 0 0 1-60.330667 0 42.837333 42.837333 0 0 1 0-60.373334l373.333334-373.333333a42.794667 42.794667 0 0 1 60.330666 0z" fill="#757575" p-id="7420"></path><path d="M107.178667 158.464a42.794667 42.794667 0 0 0 0 60.330667l373.333333 373.376a42.794667 42.794667 0 0 0 60.330667 0 42.922667 42.922667 0 0 0 0-60.373334l-373.333334-373.333333a42.794667 42.794667 0 0 0-60.330666 0z" fill="#757575" p-id="7421"></path></svg>
